PathFileType	4	(X/Y/Z)	C:\Users\Basilio\Documents\Thesis Gigler\squatting_fais\c3dfiles\019\SLS_back_pre3\markers_experimental.trc
DataRate	CameraRate	NumFrames	NumMarkers	Units	OrigDataRate	OrigDataStartFrame	OrigNumFrames
200.000000	200.000000	4	59	mm	200.000000	582	1552
Frame#	Time	LBHD			RBHD			C7			T10			CLAV			LSHO			LUUPA			LMUPA			LDUPA			LLEP			LMEP			LRAD			LUL			LRFIN			RSHO			RUPA1			RMUPA			RDUPA			RLEP			RMEP			RRAD			RUL			RUFIN			LASI			RASI			USACR			LSACR			RSACR			LTHI1			LTHI2			LTHI3			LTHI4			LLFC			LTIB1			LTIB2			LTIB3			LTIB4			LLMAL			LMMAL			LHEE			LMT2			LMT5			RTHI			RTHI2			RTHI4			RLFC			RTIB1			RTIB2			RTIB3			RTIB4			RLMAL			RMMAL			RHEE			RMT1			RMT2			RMT5			FHD			LMT1			RTHI3			
		X1	Y1	Z1	X2	Y2	Z2	X3	Y3	Z3	X4	Y4	Z4	X5	Y5	Z5	X6	Y6	Z6	X7	Y7	Z7	X8	Y8	Z8	X9	Y9	Z9	X10	Y10	Z10	X11	Y11	Z11	X12	Y12	Z12	X13	Y13	Z13	X14	Y14	Z14	X15	Y15	Z15	X16	Y16	Z16	X17	Y17	Z17	X18	Y18	Z18	X19	Y19	Z19	X20	Y20	Z20	X21	Y21	Z21	X22	Y22	Z22	X23	Y23	Z23	X24	Y24	Z24	X25	Y25	Z25	X26	Y26	Z26	X27	Y27	Z27	X28	Y28	Z28	X29	Y29	Z29	X30	Y30	Z30	X31	Y31	Z31	X32	Y32	Z32	X33	Y33	Z33	X34	Y34	Z34	X35	Y35	Z35	X36	Y36	Z36	X37	Y37	Z37	X38	Y38	Z38	X39	Y39	Z39	X40	Y40	Z40	X41	Y41	Z41	X42	Y42	Z42	X43	Y43	Z43	X44	Y44	Z44	X45	Y45	Z45	X46	Y46	Z46	X47	Y47	Z47	X48	Y48	Z48	X49	Y49	Z49	X50	Y50	Z50	X51	Y51	Z51	X52	Y52	Z52	X53	Y53	Z53	X54	Y54	Z54	X55	Y55	Z55	X56	Y56	Z56	X57	Y57	Z57	X58	Y58	Z58	X59	Y59	Z59	

583	2.91	-263.9986572265626	1558.1669921875	-783.7276611328127	-267.8339233398438	1548.261596679688	-644.1571655273439	-307.6374206542969	1397.229736328125	-704.7960815429689	-418.8282775878907	1134.924438476563	-712.8983154296876	-181.3935089111328	1324.055786132813	-713.8724975585939	-229.2037048339844	1384.30712890625	-847.3071289062502	-111.7600555419922	1338.902709960938	-907.695495605469	-86.17966461181642	1332.52197265625	-866.7063598632815	-46.92337036132813	1327.283935546875	-912.437927246094	19.87425994873047	1284.499389648438	-943.3132934570315	12.08152484893799	1228.621337890625	-924.1009521484377	259.7339477539063	1297.345581054688	-858.6915283203127	266.6501159667969	1251.975341796875	-905.622985839844	335.0823364257813	1313.615234375	-860.8093872070315	-213.5535888671876	1380.792724609375	-585.9127197265626	-103.1352691650391	1291.51220703125	-489.6168823242189	-76.38925170898439	1315.046752929688	-521.9145507812501	-38.68889617919923	1275.047119140625	-495.5333557128907	36.81685256958009	1257.79736328125	-510.2246704101564	20.45216941833496	1206.406982421875	-530.6658325195314	274.0467834472657	1289.910278320313	-594.4157104492189	287.5428771972657	1239.248413085938	-555.6110839843751	355.9540100097657	1299.69921875	-588.0723876953126	-347.3976135253907	898.5053710937502	-841.5933837890627	-329.5181884765626	891.2523193359377	-637.4110717773439	-466.9859313964845	1010.3583984375	-723.4204101562501	-484.7384338378907	982.7562255859377	-750.7766113281251	-478.4497985839845	980.7023925781252	-692.8802490234376	-399.7561035156251	661.1907348632814	-933.1582031250002	-346.7538757324219	593.5258178710939	-941.5660400390627	-302.8361816406251	602.6388549804689	-925.2741699218752	-362.6975402832032	534.1907348632814	-935.200134277344	-361.4118041992188	453.9586181640626	-916.3674316406252	-453.2739868164064	358.5612792968751	-873.469177246094	-515.0061035156251	400.420135498047	-919.3243408203127	-505.8901367187501	365.7474060058594	-895.7769775390627	-577.9306030273439	350.0646362304688	-848.706726074219	-723.8492431640626	393.3392639160157	-859.3574829101565	-697.5947875976564	381.3670043945313	-776.9652099609377	-766.9783325195314	447.5035705566407	-803.8010253906252	-752.0913085937501	231.4324798583985	-815.010681152344	-791.6046142578127	266.8557434082032	-861.1420898437502	-339.9161682128907	720.1084594726564	-566.8451538085939	-280.3191223144532	697.7381591796876	-583.2402343750001	-261.7394714355469	616.3002319335939	-587.9301757812501	-228.8070983886719	468.0744628906251	-639.6698608398439	-234.7659301757813	298.3794250488282	-722.1675415039064	-302.7854309082032	230.0754699707032	-667.2696533203126	-273.5328369140626	218.1696319580079	-705.2215576171876	-303.1235961914063	193.4181060791016	-748.2162475585939	-382.7482604980469	127.1040573120117	-703.4847412109376	-369.4328002929688	133.8233184814453	-780.4267578125002	-456.4563293457032	105.8087539672852	-754.9640502929689	-258.0213623046876	54.5661964416504	-784.8860473632815	-252.9083709716797	59.30176544189455	-739.3771972656251	-291.9846496582032	48.58582305908205	-684.1574096679689	-135.6845703125	1585.609497070313	-639.4537353515626	-744.1299438476564	237.4309692382813	-776.711120605469	-263.3670959472657	714.4569091796876	-605.5626220703126	
584	2.915	-263.6352233886719	1557.358764648438	-783.9334106445315	-267.0362548828126	1547.282958984375	-644.2300415039064	-307.1421508789063	1396.528442382813	-704.4735717773439	-418.5688781738282	1134.302734375	-712.9752807617189	-180.849105834961	1323.14892578125	-713.8723754882814	-229.2533569335938	1383.314575195313	-847.9085693359377	-110.96484375	1337.988647460938	-907.7712402343752	-85.51780700683595	1331.54833984375	-866.6448974609377	-46.13763427734376	1326.22119140625	-912.4285278320315	20.4979305267334	1283.459350585938	-943.3336181640627	12.64331722259522	1227.615478515625	-924.0637817382815	260.3181152343751	1296.139282226563	-858.6390380859377	267.2580261230469	1250.779663085938	-905.5257568359377	335.7318420410157	1312.20458984375	-860.6342773437502	-212.3309936523438	1379.976318359375	-585.2086181640626	-102.8888168334961	1290.745239257813	-489.8031616210939	-76.15024566650392	1314.168701171875	-521.8909301757814	-38.19823455810548	1274.16455078125	-495.4974060058595	37.20576477050782	1256.685180664063	-510.3116455078126	20.84358024597168	1205.754272460938	-530.4672241210939	274.4978637695313	1288.651245117188	-594.3155517578126	288.0294494628907	1238.067504882813	-555.5541992187501	357.2060241699219	1296.911499023438	-587.9593505859376	-347.8325805664063	897.669372558594	-841.545349121094	-329.7925720214844	890.7760009765627	-637.4176025390626	-467.2164611816407	1009.80712890625	-723.4130249023439	-485.0725708007814	982.2915649414065	-750.7861328125001	-478.450897216797	980.367126464844	-692.8652343750001	-400.6277160644532	660.7081298828126	-933.1094970703127	-347.5097961425782	592.8743896484376	-941.502136230469	-303.7622680664063	602.1168823242189	-925.318054199219	-363.3623657226563	533.5186767578126	-935.1436767578127	-362.1069641113282	453.3097229003907	-916.2183227539065	-454.0574035644532	358.0321350097657	-873.4566650390627	-515.5067749023439	399.7772827148439	-919.4856567382815	-506.6301269531251	365.1875000000001	-895.6145019531252	-579.0960083007814	349.9214782714844	-849.181091308594	-724.6929931640626	393.1585388183595	-859.4505004882815	-698.4692382812501	381.3155822753907	-776.9537353515627	-767.7933959960939	447.4462890625001	-803.8338623046877	-753.1770019531251	231.4311065673829	-815.0216064453127	-792.724792480469	266.8295288085938	-861.2626953125002	-340.3490295410157	719.8737182617189	-566.7084350585939	-280.6653137207032	697.4719238281251	-583.0154418945314	-261.9186096191407	616.1374511718751	-587.8038940429689	-229.0215759277344	467.5633850097657	-639.4047851562501	-234.7100677490235	298.3507385253907	-722.1655883789064	-302.8052368164063	229.985824584961	-667.2694702148439	-273.4245910644532	218.0677795410157	-705.2665405273439	-303.1485290527344	193.3568267822266	-748.2375488281251	-382.7803344726563	127.0597686767578	-703.4701538085939	-369.4829711914063	133.8018798828125	-780.424987792969	-456.4215393066407	105.7876205444336	-755.0039672851564	-258.0819396972657	54.50634765625001	-784.8795166015627	-252.9423065185547	59.34631729125978	-739.4047241210939	-291.9417114257813	48.64768981933595	-684.1918334960939	-135.1978302001953	1584.828491210938	-639.4620971679689	-745.2114868164064	237.2393188476563	-776.7188720703127	-263.7339782714844	714.2548217773439	-605.3159179687501	
585	2.92	-262.1574707031251	1556.135864257813	-783.9204101562502	-266.6281738281251	1546.55078125	-644.1519775390626	-305.9358825683594	1395.781127929688	-704.6383666992189	-418.4241638183595	1133.770263671875	-713.1144409179689	-180.2923583984375	1322.152709960938	-713.8456420898439	-228.5783843994141	1382.484008789063	-847.9985961914065	-110.3399658203125	1336.993041992188	-907.8459472656252	-84.84865570068361	1330.476928710938	-866.829284667969	-45.46856689453126	1325.233764648438	-912.4151611328127	21.05233192443848	1282.4248046875	-943.3218383789065	13.23134899139405	1226.526977539063	-924.057800292969	261.0108642578126	1294.955810546875	-858.4877929687502	267.7908325195313	1249.675659179688	-905.369079589844	336.4509277343751	1311.197509765625	-860.5036621093752	-212.1351013183594	1378.496337890625	-584.9839477539064	-102.5210113525391	1290.04541015625	-489.6564941406251	-75.73355865478517	1313.555541992188	-521.9016113281251	-37.7345199584961	1273.15966796875	-495.4952392578126	37.6572380065918	1255.701293945313	-510.3809509277345	21.37611770629883	1204.419921875	-529.7233276367189	274.8919677734376	1287.076293945313	-594.1700439453126	288.5263977050782	1236.867553710938	-555.3845825195314	357.1670227050782	1296.7578125	-587.9882202148439	-348.0390930175782	896.9248046875002	-841.4514770507815	-330.0776367187501	890.2214965820315	-637.3883056640626	-467.3059387207032	1009.507263183594	-723.3651733398439	-485.1743774414064	981.9190063476565	-750.6380004882814	-478.9270935058595	980.1313476562502	-692.7727050781251	-401.2422790527345	660.0266113281251	-932.985534667969	-348.2802124023438	592.3352661132814	-941.4395141601565	-304.4585571289063	601.4256591796876	-925.2857055664065	-364.0001831054688	532.7607421875001	-935.0422973632815	-362.8165283203126	452.6951293945314	-916.0906372070315	-454.8865966796876	357.5047912597657	-873.2200317382815	-516.2471923828126	399.2025146484376	-919.509704589844	-507.4723510742189	364.6613159179688	-895.519958496094	-580.1423339843751	349.7671203613282	-849.3272094726565	-725.4609985351564	392.8652648925782	-859.4721679687502	-699.3056030273439	380.9779052734376	-776.878112792969	-768.4866943359377	447.2417297363282	-803.9052734375002	-754.2545166015626	231.3742675781251	-814.9704589843752	-793.648620605469	266.7183227539063	-861.228942871094	-340.6415100097657	719.5993041992189	-566.5563354492189	-280.9275817871094	697.2791137695314	-582.8661499023439	-262.0931701660157	615.9707641601564	-587.6509399414064	-228.8009185791016	468.0960998535157	-639.5401611328126	-234.6587066650391	298.2144775390626	-722.1093750000001	-302.7059631347657	229.9337921142579	-667.1921997070314	-273.4250793457032	218.0425415039063	-705.2296752929689	-303.1153869628907	193.3326721191407	-748.2027587890626	-382.7863464355469	127.0675888061524	-703.4860839843751	-369.3873291015626	133.7620849609375	-780.4222412109377	-456.3484497070314	105.7497940063477	-755.0458374023439	-258.0397033691407	54.50161743164064	-784.891052246094	-252.8795013427735	59.35531616210939	-739.3963623046876	-292.0267028808594	48.73319625854494	-684.1254882812501	-134.5778503417969	1583.9658203125	-639.4043579101564	-746.3399658203126	237.1360321044922	-776.870788574219	-264.0644836425782	713.8572387695314	-605.0635375976564	
586	2.925	-261.3780517578126	1555.245849609375	-783.9051513671877	-266.1755371093751	1545.356689453125	-644.3233032226564	-305.3786315917969	1395.045776367188	-704.7761230468751	-418.2635498046876	1133.3076171875	-713.1543579101564	-179.6625213623047	1321.249145507813	-713.8567504882814	-228.0189056396485	1381.706665039063	-848.1921386718752	-109.6991119384766	1336.044677734375	-907.8436279296877	-84.3076858520508	1329.546875	-866.809020996094	-44.86103057861329	1324.210327148438	-912.4758911132815	21.87191390991211	1281.290649414063	-943.2280273437502	13.85958862304688	1225.49755859375	-924.0266723632815	261.4544372558594	1293.945434570313	-858.403259277344	268.3283081054688	1248.484008789063	-905.247009277344	336.8990783691407	1310.1884765625	-860.4010009765627	-211.4712219238282	1377.732299804688	-585.6528320312501	-101.9686737060547	1289.006469726563	-489.6882324218751	-75.06436920166017	1312.379150390625	-521.9420776367189	-37.23008728027344	1272.35400390625	-495.4820556640626	38.18757247924805	1254.969970703125	-510.4928283691407	21.77271842956543	1203.839965820313	-529.5194091796876	275.3902893066407	1286.22412109375	-594.2977905273439	288.8367919921876	1235.756103515625	-555.3728637695314	357.7008666992188	1295.703979492188	-587.8695068359376	-348.4752197265626	896.2974853515627	-841.368835449219	-330.4392700195313	889.6382446289065	-637.3543090820314	-467.3378295898439	1009.042175292969	-723.3732910156251	-485.1180725097657	981.4084472656252	-750.5712890625001	-478.9905090332032	979.7659912109377	-692.7678833007814	-401.7463989257814	659.3003540039064	-932.8181762695315	-349.0543823242188	591.7786865234376	-941.348327636719	-304.9287109375001	600.7592163085939	-925.0994262695315	-364.7192382812501	532.1877441406251	-934.886413574219	-363.9921264648438	452.3512573242189	-916.0949707031252	-455.8203735351564	357.1426391601563	-873.1660156250002	-517.1661987304689	398.7620239257814	-919.5940551757815	-508.5060424804689	364.4206848144532	-895.4593505859377	-581.2781982421876	349.8901977539063	-849.5404052734377	-726.1986694335939	392.5599365234376	-859.4343261718752	-700.1395263671876	380.8485412597657	-776.9702758789065	-769.2701416015627	447.0799865722657	-803.9085083007815	-755.2625732421876	231.2115173339844	-814.8005371093752	-794.714782714844	266.6433410644532	-861.3435058593752	-340.9938049316407	719.2399291992189	-566.4186401367189	-281.2557678222657	697.0579833984376	-582.6668090820314	-262.2592773437501	615.8109741210939	-587.3948974609376	-228.8650512695313	467.4571838378907	-639.1707153320314	-234.5167388916016	298.1282653808594	-722.0333251953126	-302.7289428710938	229.8526306152344	-667.1923217773439	-273.4044494628907	218.0214385986329	-705.1420898437501	-303.1187744140626	193.3497467041016	-748.1716308593751	-382.7618408203126	127.065414428711	-703.4722900390626	-369.5164489746094	133.7977905273438	-780.4093017578127	-456.4536743164064	105.8293762207032	-754.9915161132814	-258.0711364746094	54.49644470214845	-784.9060058593752	-252.931137084961	59.39007949829103	-739.3954467773439	-291.9553833007813	48.65893936157228	-684.1502685546876	-134.0689086914063	1583.068359375	-639.3270874023439	-747.3266601562501	237.0302429199219	-776.8452758789065	-264.2764892578126	713.7006225585939	-604.8238525390626	
